<?xml version="1.0" ?>
<!-- Uploaded to: SVG Repo, www.svgrepo.com, Generator: SVG Repo Mixer Tools -->
<svg width="800px" height="800px" viewBox="0 0 512 512" id="Layer_1" version="1.1" xml:space="preserve" xmlns="http://www.w3.org/2000/svg" xmlns:xlink="http://www.w3.org/1999/xlink">
<style type="text/css">
	.st0{fill:#1B3954;}
	.st1{fill:#16ADE1;}
</style>
<g>
<g>
<polygon class="st0" points="259.9,143.8 235.2,119.1 154.5,38.4 122.9,119.1 122.4,120.4 122.4,120.4 202.9,200.9   "/>
<path class="st0" d="M393.4,315c0.3-0.3,0.6-0.6,0.8-0.9c0-0.1,0.1-0.1,0.1-0.2c2-2.5,3.1-5.5,3.1-8.7c0-2.3-0.6-4.6-1.6-6.6    c-2.9-5.5-1.8-12.2,2.5-16.5l-1.6-1.6l-60-60l-10.4,10.4l0,0l-6.8,6.8l0,0l-9.7,9.7l0,0l0,0l21.7,21.7c2.7,2.7,2.7,7.2,0,9.9    c-1.4,1.4-3.2,2-5,2c-1.8,0-3.6-0.7-4.9-2L300,257.5v0l0,0l0,0l0,0l-9.9,9.9l0,0l-0.2,0.2l-10.1,10.2l75.5,75.5L393.4,315z     M351.9,292.7c-0.1,0.5-0.2,0.9-0.4,1.3c-0.2,0.4-0.4,0.8-0.7,1.2s-0.5,0.7-0.9,1.1c-0.3,0.3-0.7,0.6-1.1,0.9s-0.8,0.5-1.2,0.7    c-0.4,0.2-0.9,0.3-1.3,0.4c-0.5,0.1-0.9,0.1-1.4,0.1c-1.8,0-3.6-0.8-5-2.1c-1.3-1.3-2-3.1-2-4.9c0-1.8,0.8-3.7,2-5    c1.6-1.6,4-2.4,6.3-1.9c0.5,0.1,0.9,0.2,1.3,0.4c0.4,0.2,0.8,0.4,1.2,0.6c0.4,0.3,0.7,0.6,1.1,0.9s0.6,0.7,0.9,1.1    c0.3,0.4,0.5,0.8,0.7,1.2c0.2,0.4,0.3,0.9,0.4,1.3c0.1,0.4,0.1,0.9,0.1,1.4C352.1,291.8,352,292.2,351.9,292.7z"/>
<polygon class="st0" points="284.6,119.1 365.3,38.4 174.3,38.4 255,119.1   "/>
<g>
<path class="st1" d="M468.2,351.4c-1.2-1.2-46.1-45.4-46.1-45.4l-13.9-13.9c2.2,4.1,3.3,8.6,3.3,13.1c0,6.2-2.1,12.4-6.2,17.5     l0,0.1c-0.6,0.7-1.2,1.4-1.9,2.1l-82.8,82.6l-0.9,0.9l42.4,42.4l0.3-0.3l23,23l82.7-82.7c5.4-5.4,8.2-12.6,8.2-19.7     C476.3,364,473.6,356.9,468.2,351.4z"/>
</g>
<g>
<polygon class="st1" points="300,237.6 326.9,210.8 418.5,119.1 385.1,38.4 304.4,119.1 269.8,153.7 212.8,210.8 35.7,387.9      92.7,444.9 269.8,267.8 290.1,247.5    "/>
</g>
</g>
</g>
</svg>